<?xml version="1.0" standalone="no"?>
<!DOCTYPE svg PUBLIC "-//W3C//DTD SVG 20010904//EN"
 "http://www.w3.org/TR/2001/REC-SVG-20010904/DTD/svg10.dtd">
<svg version="1.0" xmlns="http://www.w3.org/2000/svg"
 width="400.000000pt" height="400.000000pt" viewBox="0 0 400.000000 400.000000"
 preserveAspectRatio="xMidYMid meet">
<metadata>
Created by potrace 1.11, written by Peter Selinger 2001-2013
</metadata>
<g transform="translate(0.000000,400.000000) scale(0.100000,-0.100000)"
fill="#000000" stroke="none">
<path d="M1802 3980 c-372 -39 -730 -182 -1027 -409 -85 -64 -256 -232 -328
-321 -197 -244 -340 -548 -402 -853 -28 -138 -50 -380 -40 -438 l7 -39 466 0
467 0 224 386 c181 311 227 383 237 372 6 -7 139 -195 294 -418 155 -223 286
-409 291 -414 11 -12 -19 -52 321 436 156 224 285 407 288 408 3 0 106 -173
229 -385 l223 -385 469 0 469 0 0 120 c0 507 -230 1032 -610 1394 -298 283
-641 455 -1050 527 -132 23 -400 33 -528 19z m513 -390 c489 -103 893 -406
1123 -841 84 -158 150 -362 176 -546 l6 -43 -123 0 -123 0 -13 78 c-70 420
-354 798 -748 996 -612 306 -1364 112 -1752 -454 -107 -156 -183 -333 -216
-505 -10 -50 -19 -96 -21 -102 -2 -10 -36 -13 -125 -13 l-121 0 7 48 c25 175
79 352 155 503 182 366 480 641 856 792 140 57 243 83 439 111 17 2 109 3 205
1 128 -3 202 -10 275 -25z"/>
<path d="M1250 1967 l-165 -282 -528 -3 c-346 -1 -527 -6 -527 -12 0 -34 48
-220 81 -319 205 -596 677 -1062 1274 -1254 1013 -327 2098 196 2480 1194 34
88 84 265 99 352 l7 37 -528 0 -528 0 -60 103 c-32 56 -107 184 -166 285
l-107 182 -288 -415 c-159 -228 -292 -415 -295 -415 -3 0 -133 183 -289 408
-156 224 -286 410 -290 414 -3 5 -80 -119 -170 -275z m-490 -593 c123 -249
365 -490 623 -621 38 -19 122 -52 186 -73 647 -215 1362 83 1670 698 l31 62
126 0 c149 0 144 18 49 -175 -150 -304 -422 -575 -730 -727 -125 -62 -280
-113 -440 -144 -139 -28 -424 -25 -573 4 -442 88 -805 330 -1053 700 -68 102
-151 260 -164 315 l-7 27 125 0 124 0 33 -66z"/>
</g>
</svg>
