<svg class="utouch-icon" version="1.1" id="Capa_1" xmlns="http://www.w3.org/2000/svg" xmlns:xlink="http://www.w3.org/1999/xlink" x="0px" y="0px"
	 viewBox="0 0 481.2 481.2" style="enable-background:new 0 0 481.2 481.2;" xml:space="preserve">
<g>
	<path d="M410.7,70.5C365.3,25,304.9,0,240.6,0S115.9,25,70.5,70.5C25,115.9,0,176.3,0,240.6s25,124.7,70.5,170.1
		c45.4,45.4,105.9,70.5,170.1,70.5s124.7-25,170.1-70.5c45.4-45.4,70.5-105.9,70.5-170.1S456.2,115.9,410.7,70.5z M411.7,112.9
		l-59.1,101.3L244.6,27C312.9,28.3,373.5,61.8,411.7,112.9z M336.9,241.1l-48.3,82.7H193l-48.5-83.3l48-83.1h96.1L336.9,241.1z
		 M214.3,28.6L273,130.4H57.7C90.8,75.6,147.9,36.8,214.3,28.6z M27,240.6c0-29.5,6-57.6,16.9-83.2h117.5L53.7,343.8
		C36.7,313.2,27,278,27,240.6z M70.2,369.2L129,267.4l108.8,186.7C169.4,453.3,108.7,420.1,70.2,369.2z M268,452.4l-59.2-101.7h87.6
		c0,0,0,0,0.1,0l0,0h127.1C390.6,405.3,334,444,268,452.4z M319.9,323.8l108.2-185.4c16.6,30.4,26.1,65.2,26.1,102.2
		c0,29.5-6,57.6-16.9,83.2H319.9z"/>
</g>
<g>
</g>
<g>
</g>
<g>
</g>
<g>
</g>
<g>
</g>
<g>
</g>
<g>
</g>
<g>
</g>
<g>
</g>
<g>
</g>
<g>
</g>
<g>
</g>
<g>
</g>
<g>
</g>
<g>
</g>
</svg>
