<?xml version="1.0" encoding="UTF-8"?>
<svg xmlns="http://www.w3.org/2000/svg" xmlns:xlink="http://www.w3.org/1999/xlink" viewBox="0 0 24 24" version="1.1" width="50px" height="50px">
<g id="surface1">
<path style=" " d="M 13.300781 2.003906 C 13.085938 1.988281 12.84375 2.027344 12.628906 2.101563 C 11.757813 2.390625 11.304688 3.320313 11.59375 4.1875 L 12.289063 6.226563 L 8.355469 7.546875 L 7.707031 5.578125 C 7.417969 4.710938 6.488281 4.257813 5.621094 4.546875 C 4.753906 4.835938 4.273438 5.765625 4.566406 6.632813 L 5.214844 8.578125 L 3.171875 9.273438 C 2.304688 9.5625 1.851563 10.519531 2.140625 11.386719 C 2.429688 12.253906 3.359375 12.707031 4.226563 12.417969 L 6.265625 11.746094 L 7.585938 15.65625 L 5.617188 16.304688 C 4.75 16.59375 4.296875 17.523438 4.585938 18.390625 C 4.878906 19.257813 5.808594 19.738281 6.675781 19.445313 L 8.621094 18.800781 L 9.316406 20.839844 C 9.605469 21.707031 10.558594 22.160156 11.425781 21.871094 C 12.296875 21.582031 12.746094 20.652344 12.460938 19.785156 L 11.785156 17.746094 L 15.699219 16.425781 L 16.347656 18.394531 C 16.636719 19.261719 17.566406 19.714844 18.433594 19.425781 C 19.300781 19.136719 19.777344 18.203125 19.488281 17.339844 L 18.839844 15.394531 L 20.878906 14.699219 C 21.746094 14.40625 22.203125 13.453125 21.910156 12.585938 C 21.621094 11.71875 20.691406 11.265625 19.824219 11.554688 L 17.785156 12.226563 L 16.464844 8.316406 L 18.433594 7.667969 C 19.300781 7.378906 19.757813 6.449219 19.464844 5.582031 C 19.175781 4.714844 18.246094 4.234375 17.378906 4.523438 L 15.433594 5.171875 L 14.738281 3.132813 C 14.519531 2.480469 13.941406 2.054688 13.300781 2.003906 Z M 13.324219 9.371094 L 14.644531 13.28125 L 10.730469 14.601563 L 9.410156 10.691406 Z "/>
</g>
</svg>
