<svg xmlns="http://www.w3.org/2000/svg" viewBox="0 0 371.599 371.599" enable-background="new 0 0 371.599 371.599"><path d="m282.07 221.29l-11.07-17.11c-3.413-5.274-5.228-11.422-5.228-17.704v-71.882c0-28.693 2.079-89.82-79.84-89.82-66.64 0-87.25 35.516-93.62 57.48-2.53 8.721 3.415 17.601 12.448 18.533l25.83 2.665c6.08.627 11.91-2.6 14.547-8.114 5.01-10.473 13.735-26.07 40.668-26.07 10.434 0 25.11 4.413 25.11 17.316 0 18.722-.025 27.595-.025 27.595.07 3.907-3.078 7.113-6.986 7.113h-25.25c-19.05 0-91.44 9.769-91.44 82.16s76.81 64.06 81.913 62.864c9.515-2.23 27.342-8.741 44.1-24.717 2.815-2.684 7.306-2.45 9.751.575l13.529 16.742c5.259 6.508 14.933 7.192 21.06 1.49l22.24-20.713c5.119-4.769 6.08-12.523 2.279-18.397m-111.05-4.03c-25.717 0-24.984-23.25-19.05-34.29 5.552-10.328 20.221-28.636 59.6-29.883l.345 19.212c.257 14.281-6.313 27.999-17.995 36.22-7.238 5.094-15.13 8.742-22.902 8.742" fill="#171715"/><g fill="#ffac35"><path d="m1.534 283.35c-3.911-3.534.345-9.793 5.073-7.464 33.23 16.369 95.79 41.676 164.94 41.676 70.66 0 129.78-16.879 159.54-27.3 4.838-1.694 8.324 4.639 4.341 7.866-23.606 19.12-74.3 48.697-162.02 48.697-87.39 0-144.16-38.438-171.87-63.48"/><path d="m299.94 273.05c9.218-6.825 32.12-18.591 66.35-8.303 3.145.945 5.289 3.855 5.313 7.139.083 11.229-2.337 37.593-24.318 59.5-1.526 1.521-4.096.028-3.531-2.052 3.754-13.824 11.385-43.476 8.964-47.613-2.776-4.743-37.465-4.969-51.52-4.864-2.051.016-2.904-2.589-1.256-3.809"/></g></svg>