<svg xmlns="http://www.w3.org/2000/svg" viewBox="0 0 458.443 458.443" enable-background="new 0 0 458.443 458.443"><g fill="#0067ff"><path d="m194.02 206.64c7.935-12.351 12.466-27.09 12.204-42.884-.702-42.28-35.884-75.87-78.17-75.87h-118.05c-5.529 0-10.01 4.483-10.01 10.01v259.6c0 5.529 4.483 10.01 10.01 10.01h131.86c48.941 0 89.48-39.23 89.68-88.17.123-29.994-14.751-56.59-37.536-72.7m-142.23-66.967h77.28c13.995 0 25.382 11.386 25.382 25.382 0 13.995-11.386 25.382-25.382 25.382h-77.28v-50.764m91.24 176.05h-91.24v-73.49h77.28 13.957c20.262 0 36.747 16.485 36.747 36.747 0 20.262-16.484 36.747-36.746 36.747"/><path d="m458.44 260.93c0-60.45-47.642-109.62-106.2-109.62s-106.2 49.18-106.2 109.62 47.643 109.62 106.2 109.62c35.534 0 68.55-18.216 88.32-48.729 2.465-3.804 4.704-7.779 6.691-11.876 1.442-2.974-.746-6.435-4.052-6.443l-52.21-.13c-1.155-.003-2.25.469-3.078 1.274-9.858 9.585-21.944 14.12-35.679 14.12-25.945 0-47.694-19.405-53.11-45.27h148.92c5.74 0 10.393-4.653 10.393-10.393v-2.169m-106.2-57.836c19 0 35.75 10.413 45.49 26.15h-90.97c9.735-15.732 26.484-26.15 45.49-26.15"/><path d="m396.37 138.44h-94.2c-4.395 0-7.958-3.563-7.958-7.958v-23.631c0-4.395 3.563-7.958 7.958-7.958h94.2c4.395 0 7.958 3.563 7.958 7.958v23.631c0 4.396-3.563 7.958-7.958 7.958"/></g></svg>