<svg xmlns="http://www.w3.org/2000/svg" viewBox="0 0 355.467 355.467" enable-background="new 0 0 355.467 355.467"><path d="m355.33 162.46l-12.608-126.28c-1.382-13.846-12.55-24.676-26.431-25.633l-121.74-8.393c-8.098-.558-16.05 2.359-21.867 8.02l-164.05 159.7c-11.4 11.1-11.523 29.375-.273 40.624l134.51 134.51c11.04 11.04 28.897 11.158 40.08.269l163.89-159.54c6.228-6.06 9.353-14.631 8.49-23.28m-94.02 41.14l-20.545 34.805-40.18-27.623c-2.65-1.822-6.232.223-6.01 3.431l3.366 48.639h-40.42l3.366-48.639c.222-3.208-3.36-5.254-6.01-3.431l-40.17 27.623-20.545-34.805 44.802-22.429c2.83-1.417 2.83-5.455 0-6.872l-44.802-22.428 20.545-34.805 40.17 27.623c2.65 1.822 6.232-.223 6.01-3.431l-3.366-48.639h40.42l-3.366 48.639c-.222 3.208 3.36 5.254 6.01 3.431l40.17-27.623 20.545 34.805-51.665 25.864 51.665 25.865m26.416-115.85c-11 0-19.918-8.918-19.918-19.918s8.918-19.918 19.918-19.918c11 0 19.918 8.918 19.918 19.918s-8.918 19.918-19.918 19.918" fill="#90a358"/></svg>