<svg xmlns="http://www.w3.org/2000/svg" viewBox="0 0 425.276 425.276" enable-background="new 0 0 425.276 425.276"><path d="m212.64 0c-117.44 0-212.64 95.2-212.64 212.64s95.2 212.64 212.64 212.64 212.64-95.2 212.64-212.64-95.2-212.64-212.64-212.64m171.96 197.35c-22.571-.907-65.28-.93-113.81 7.556-4.384-10.511-8.862-20.591-13.362-30.21 2.811-1.312 5.599-2.646 8.334-4.02 33.33-16.799 61.02-38.531 82.59-64.764 20.8 26.34 33.33 57.893 36.25 91.44m-64.64-119.95c-20.14 25.651-46.978 46.24-80.32 61.64-3.751-7.07-7.448-13.791-11.04-20.1-18.354-32.28-35.867-57.969-48.968-75.79 10.763-2.072 21.802-3.141 33.01-3.141 39.466 0 76.903 13.164 107.32 37.4m-229.39 13.167c14.403-14.403 30.905-25.942 48.814-34.34 12.573 16.328 33.28 45.13 54.976 83.41 2.48 4.376 5.02 8.972 7.587 13.735-16.671 5.154-34.572 9.303-53.706 12.419-42.926 6.99-81.61 6.778-103.34 5.784 7.387-30.411 22.975-58.31 45.668-81.01m-50.564 122.07c0-.409.012-.817.015-1.225 7.377.393 16.766.715 27.711.715 23.12 0 53.2-1.44 85.91-6.694 23.596-3.791 45.835-9.141 66.53-15.992 3.659 7.752 7.307 15.831 10.902 24.21-26.514 7.132-50.856 16.462-72.69 27.894-35.425 18.55-64.28 42.653-86.01 71.784-21.02-29.15-32.375-64.05-32.375-100.7m59.989 130.84c30.377-44.489 79.35-75.48 145.9-92.39 13.348 36.702 24.769 77.74 31.354 121.74-20.261 8.169-42.1 12.457-64.61 12.457-41.8 0-81.33-14.756-112.65-41.803m234.72-8.762c-6.372 6.372-13.159 12.175-20.292 17.404-6.83-39.08-17.1-75.73-28.934-109.11 41.931-6.576 78.82-6.412 98.04-5.643-5.236 36.73-22.11 70.64-48.809 97.34" fill="#a6285f"/></svg>