<svg xmlns="http://www.w3.org/2000/svg" viewBox="0 0 447.232 447.232" enable-background="new 0 0 447.232 447.232"><g fill="#1587ea"><path d="m207.53 251.68l-114.62-73.918c-3.72-2.399-8.559-2.145-12.01.63l-77.06 62.01c-5.458 4.392-5.01 12.839.873 16.636l114.62 73.918c3.72 2.399 8.559 2.145 12.01-.63l77.06-62.01c5.458-4.393 5.02-12.84-.873-16.637"/><path d="m238.83 268.31l77.06 62.01c3.449 2.775 8.287 3.03 12.01.63l114.62-73.918c5.888-3.797 6.331-12.244.873-16.636l-77.06-62.01c-3.449-2.775-8.287-3.03-12.01-.63l-114.62 73.918c-5.887 3.797-6.331 12.244-.873 16.636"/><path d="m208.4 74.2l-77.06-62.01c-3.449-2.775-8.287-3.03-12.01-.63l-114.62 73.918c-5.888 3.797-6.331 12.244-.873 16.636l77.06 62.01c3.449 2.775 8.287 3.03 12.01.63l114.62-73.918c5.888-3.797 6.331-12.244.873-16.636"/><path d="m442.53 85.47l-114.62-73.918c-3.72-2.399-8.559-2.145-12.01.63l-77.06 62.01c-5.458 4.392-5.01 12.839.873 16.636l114.62 73.918c3.72 2.399 8.559 2.145 12.01-.63l77.06-62.01c5.457-4.393 5.01-12.84-.874-16.636"/><path d="m218 279.2l-86.3 68.841c-3.128 2.495-7.499 2.715-10.861.547l-21.271-13.718c-6.201-3.999-14.368.453-14.368 7.831v7.416c0 3.258 1.702 6.28 4.488 7.969l128.48 77.884c2.969 1.8 6.692 1.8 9.661 0l128.48-77.884c2.786-1.689 4.488-4.71 4.488-7.969v-6.619c0-7.378-8.168-11.83-14.368-7.831l-20.02 12.913c-3.368 2.172-7.748 1.947-10.876-.559l-85.89-68.809c-3.4-2.723-8.233-2.728-11.638-.012"/></g></svg>