<svg xmlns="http://www.w3.org/2000/svg" viewBox="0 0 408.788 408.788" enable-background="new 0 0 408.788 408.788"><path d="m353.7 0h-298.61c-30.422 0-55.09 24.662-55.09 55.09v298.62c0 30.423 24.662 55.08 55.09 55.08h147.28l.251-146.08h-37.951c-4.932 0-8.935-3.988-8.954-8.92l-.182-47.09c-.019-4.959 3.996-8.989 8.955-8.989h37.882v-45.498c0-52.8 32.25-81.55 79.35-81.55h38.65c4.945 0 8.955 4.01 8.955 8.955v39.704c0 4.944-4.01 8.952-8.95 8.955l-23.719.011c-25.615 0-30.575 12.172-30.575 30.03v39.39h56.29c5.363 0 9.524 4.683 8.892 10.01l-5.581 47.09c-.534 4.506-4.355 7.901-8.892 7.901h-50.45l-.251 146.08h87.63c30.422 0 55.08-24.662 55.08-55.08v-298.62c-.0001-30.423-24.663-55.09-55.09-55.09" fill="#475993"/></svg>