<svg xmlns="http://www.w3.org/2000/svg" viewBox="0 0 458.246 458.246" enable-background="new 0 0 458.246 458.246"><g fill="#f34a38"><path d="m160.78 259.37h71.59c-12.567 35.53-46.603 61-86.45 60.71-48.35-.357-88.33-39.03-90.2-87.35-2.01-51.789 39.537-94.56 90.89-94.56 23.479 0 44.905 8.946 61.06 23.605 3.826 3.473 9.65 3.495 13.413-.047l26.296-24.749c4.112-3.871 4.127-10.408.027-14.292-25.617-24.269-59.981-39.4-97.88-40.14-80.83-1.578-148.95 64.69-149.52 145.53-.568 81.45 65.28 147.65 146.6 147.65 78.2 0 142.08-61.23 146.36-138.36.114-.967.189-33.648.189-33.648h-132.38c-5.426 0-9.824 4.398-9.824 9.824v35.999c0 5.426 4.399 9.824 9.824 9.824"/><path d="m414.46 206.99v-35.17c0-4.755-3.854-8.609-8.609-8.609h-29.604c-4.755 0-8.609 3.854-8.609 8.609v35.17h-35.17c-4.755 0-8.609 3.854-8.609 8.609v29.604c0 4.755 3.854 8.609 8.609 8.609h35.17v35.17c0 4.755 3.854 8.609 8.609 8.609h29.604c4.755 0 8.609-3.854 8.609-8.609v-35.17h35.17c4.755 0 8.609-3.854 8.609-8.609v-29.604c0-4.755-3.854-8.609-8.609-8.609h-35.17"/></g></svg>