<svg xmlns="http://www.w3.org/2000/svg" viewBox="0 0 551.034 551.034" enable-background="new 0 0 551.034 551.034"><defs><linearGradient id="0" gradientUnits="userSpaceOnUse" y1="549.43" x2="0" y2="4.28"><stop stop-color="#e09b3d"/><stop offset=".3" stop-color="#c74c4d"/><stop offset=".6" stop-color="#c21975"/><stop offset="1" stop-color="#7024c4"/></linearGradient></defs><g fill="url(#0)"><path d="m386.88 0h-222.72c-90.52 0-164.16 73.64-164.16 164.16v222.72c0 90.52 73.64 164.16 164.16 164.16h222.72c90.52 0 164.16-73.64 164.16-164.16v-222.72c-.0001-90.52-73.64-164.16-164.16-164.16m108.72 386.88c0 60.05-48.677 108.72-108.72 108.72h-222.72c-60.05 0-108.72-48.677-108.72-108.72v-222.72c0-60.05 48.677-108.72 108.72-108.72h222.72c60.05 0 108.72 48.676 108.72 108.72v222.72"/><path d="m275.52 133c-78.58 0-142.52 63.933-142.52 142.52s63.933 142.52 142.52 142.52 142.52-63.933 142.52-142.52-63.933-142.52-142.52-142.52m0 229.6c-48.09 0-87.08-38.988-87.08-87.08s38.989-87.08 87.08-87.08c48.09 0 87.08 38.988 87.08 87.08 0 48.09-38.989 87.08-87.08 87.08"/><circle cx="418.31" cy="134.07" r="34.15"/></g></svg>