<svg xmlns="http://www.w3.org/2000/svg" viewBox="0 0 347.065 347.065" enable-background="new 0 0 347.065 347.065"><path d="m226.92 173.53l69.41-92.25c16.856-22.401 12.361-54.23-10.04-71.08-22.402-16.858-54.23-12.361-71.08 10.04l-73.16 97.23v-66.71c0-28.04-22.727-50.762-50.762-50.762s-50.762 22.727-50.762 50.762v245.53c0 28.04 22.727 50.762 50.762 50.762s50.762-22.727 50.762-50.762v-66.71l73.16 97.23c9.977 13.258 25.19 20.244 40.601 20.244 10.623 0 21.339-3.324 30.483-10.204 22.401-16.856 26.896-48.682 10.04-71.08l-69.41-92.25" fill="#00ce62"/></svg>