<svg xmlns="http://www.w3.org/2000/svg" viewBox="0 0 382 382" enable-background="new 0 0 382 382"><path d="m347.44 0h-312.89c-19.08 0-34.555 15.471-34.555 34.555v312.89c0 19.08 15.471 34.556 34.555 34.556h312.89c19.08 0 34.556-15.471 34.556-34.556v-312.89c0-19.08-15.471-34.555-34.555-34.555m-229.24 329.84c0 5.554-4.502 10.06-10.06 10.06h-42.806c-5.554 0-10.06-4.502-10.06-10.06v-179.44c0-5.554 4.502-10.06 10.06-10.06h42.806c5.554 0 10.06 4.502 10.06 10.06v179.44m-31.459-206.41c-22.459 0-40.666-18.207-40.666-40.666s18.207-40.666 40.666-40.666 40.666 18.207 40.666 40.666-18.206 40.666-40.666 40.666m255.16 207.22c0 5.106-4.14 9.246-9.246 9.246h-45.934c-5.106 0-9.246-4.14-9.246-9.246v-84.17c0-12.556 3.683-55.02-32.813-55.02-28.309 0-34.05 29.07-35.2 42.11v97.08c0 5.106-4.139 9.246-9.246 9.246h-44.43c-5.106 0-9.246-4.14-9.246-9.246v-181.06c0-5.106 4.14-9.246 9.246-9.246h44.43c5.106 0 9.246 4.14 9.246 9.246v15.655c10.497-15.753 26.1-27.912 59.31-27.912 73.55 0 73.13 68.72 73.13 106.47v86.85" fill="#0077b7"/></svg>