<svg xmlns="http://www.w3.org/2000/svg" viewBox="0 0 393.541 393.541" enable-background="new 0 0 393.541 393.541"><path d="m384.05 363.08l-121.21-58.27-.913-264.13c-.021-6.166 6.416-10.229 11.973-7.557l114.91 55.26c2.893 1.391 4.733 4.318 4.733 7.528v261.2c-.0001 4.881-5.098 8.09-9.496 5.971" fill="#00fd8d"/><path d="m262.84 304.81l-131.18-63.07 126.29-207.92c2.231-3.673 6.886-5.05 10.759-3.192l116.51 56.03c4.454 2.142 6.085 7.661 3.51 11.879l-125.89 206.28" fill="#00e470"/><path d="m262.84 304.81l-131.18-63.07-120.24-195.8c-3.35-5.455 2.479-11.914 8.248-9.14l111.99 53.853 131.18 214.16" fill="#00c967"/><path d="m122.16 363.08l-118.41-56.94c-2.295-1.104-3.754-3.425-3.754-5.971v-262.62c0-4.726 4.937-7.831 9.197-5.782l122.46 58.889v266.45c0 4.881-5.098 8.09-9.496 5.971" fill="#00ad6c"/></svg>