<svg xmlns="http://www.w3.org/2000/svg" viewBox="0 0 404.425 404.425" enable-background="new 0 0 404.425 404.425"><path d="m202.21 0c-87.82 0-159.01 71.19-159.01 159.01 0 104.38 129.29 245.42 159.01 245.42s159.01-137.07 159.01-245.42c.0001-87.82-71.19-159.01-159-159.01m-.719 278.02c-62.51 0-113.18-50.672-113.18-113.18 0-62.51 50.672-113.18 113.18-113.18 62.51 0 113.18 50.672 113.18 113.18 0 62.51-50.671 113.18-113.18 113.18" fill="#00a4c3"/><path d="m201.49 73.53c-2.809 0-5.583.147-8.328.395 6.741 7.785 10.828 17.93 10.828 29.04 0 24.518-19.875 44.39-44.39 44.39-17.17 0-32.05-9.753-39.436-24.02-6.37 12.457-9.987 26.555-9.987 41.507 0 50.43 40.883 91.31 91.31 91.31s91.31-40.883 91.31-91.31c.0001-50.43-40.882-91.32-91.31-91.32" fill="#ff4b30"/></svg>