<svg xmlns="http://www.w3.org/2000/svg" viewBox="0 0 412.439 412.439" enable-background="new 0 0 412.439 412.439"><path d="m412.35 212.26c3.366-117.68-91.89-213.95-209.2-212.24-112.91 1.642-204.01 94.89-203.14 207.81.62 80.912 47.841 150.72 116.14 183.94 3.951 1.921 8.525-1.066 8.36-5.457-.498-13.268-.069-27.452 2.586-38.854 2.613-11.227 12.866-54.643 19.607-83.16 3.281-13.885 3.677-28.3 1.035-42.32-.867-4.601-1.495-10.01-1.495-16.01 0-30.479 17.666-53.23 39.663-53.23 18.701 0 27.735 14.04 27.735 30.877 0 18.807-11.975 46.925-18.16 72.984-5.164 21.818 10.942 39.61 32.46 39.61 38.96 0 68.907-41.08 68.907-100.38 0-52.48-37.712-89.18-91.56-89.18-62.37 0-98.98 46.781-98.98 95.13 0 18.839 7.258 39.04 16.313 50.02 1.79 2.17 2.054 4.073 1.521 6.287-1.664 6.924-5.362 21.813-6.088 24.859-.957 4.01-3.177 4.863-7.33 2.932-27.379-12.744-44.494-52.769-44.494-84.92 0-69.15 50.24-132.65 144.83-132.65 76.04 0 135.13 54.18 135.13 126.6 0 75.55-47.633 136.34-113.75 136.34-17.471 0-34.12-7.14-43.908-16.821-3.01-2.977-8.099-1.621-9.173 2.474-3.447 13.13-9.02 34.376-10.814 41.28-3.232 12.429-10.04 26.905-16.871 39.512-1.814 3.35.021 7.488 3.714 8.424 16.857 4.275 34.538 6.482 52.764 6.313 108.21-1 201.09-91.99 204.18-200.16" fill="#9f1121"/></svg>