<svg xmlns="http://www.w3.org/2000/svg" viewBox="0 0 427.671 427.671" enable-background="new 0 0 427.671 427.671"><path d="m386.52 335.59c0 0-2.093 30.699-30 30.699-21.553 0-36.27-16.439-50.06-37.786 39.15-34.17 64.01-85.2 64.01-142.22.0001-102.88-80.903-186.29-180.7-186.29s-180.7 83.4-180.7 186.29 80.904 186.29 180.7 186.29c18.11 0 35.595-2.759 52.09-7.871 20.871 33.16 47.37 62.97 88.84 62.97 84.42 0 87.91-92.08 87.91-92.08h-32.09v-.0001m-196.75 6.28c-58.19 0-105.35-69.66-105.35-155.59s47.17-155.59 105.35-155.59 105.35 69.66 105.35 155.59c0 34.17-7.464 65.759-20.11 91.43-14.283-20.392-31.428-37.757-55.941-43.28-43.485-9.805-80.933 9.768-92.79 19.536l11.163 23.02c0 0 11.285-6.488 39.27-.008 17.631 4.083 31.33 28.551 47.03 56.623-10.658 5.36-22.08 8.271-33.973 8.271" fill="#cf2217"/></svg>