<svg xmlns="http://www.w3.org/2000/svg" viewBox="0 0 429.709 429.709" enable-background="new 0 0 429.709 429.709"><path d="m429.71 196.62c0-29.803-24.16-53.962-53.963-53.962-14.926 0-28.41 6.085-38.18 15.881-30.18-19.463-68.73-31.866-111.07-33.801.026-17.978 8.08-34.737 22.1-45.989 14.05-11.271 32.2-15.492 49.775-11.588l2.414.536c-.024.605-.091 1.198-.091 1.809 0 24.878 20.17 45.05 45.05 45.05s45.05-20.17 45.05-45.05c0-24.879-20.17-45.05-45.05-45.05-15.997 0-30.01 8.362-38 20.929l-4.317-.959c-24.51-5.446-49.807.442-69.39 16.16-19.564 15.695-30.792 39.07-30.818 64.15-42.33 1.934-80.88 14.331-111.05 33.785-9.767-9.798-23.271-15.866-38.2-15.866-29.802.0001-53.962 24.16-53.962 53.963 0 20.765 11.75 38.755 28.946 47.776-1.306 6.68-1.993 13.51-1.993 20.462 0 77.54 84.13 140.39 187.9 140.39s187.9-62.857 187.9-140.39c0-6.948-.687-13.775-1.991-20.452 17.197-9.02 28.945-27.02 28.945-47.786m-83.963-148.87c12 0 21.762 9.762 21.762 21.762 0 11.999-9.762 21.761-21.762 21.761s-21.762-9.762-21.762-21.761c0-12 9.763-21.762 21.762-21.762m-322.46 148.87c0-16.916 13.762-30.678 30.678-30.678 7.245 0 13.895 2.538 19.14 6.758-16.412 14.08-29.12 30.631-37.01 48.804-7.748-5.565-12.813-14.634-12.813-24.884m310.5 148.86c-31.492 23.53-73.73 36.489-118.93 36.489s-87.44-12.959-118.93-36.489c-29.462-22.01-45.688-50.645-45.688-80.62 0-29.977 16.226-58.61 45.688-80.62 31.492-23.53 73.73-36.489 118.93-36.489s87.44 12.959 118.93 36.489c29.462 22.01 45.688 50.645 45.688 80.62-.0001 29.976-16.226 58.61-45.688 80.62m59.821-123.99c-7.891-18.17-20.596-34.716-37-48.794 5.247-4.22 11.901-6.754 19.15-6.754 16.916 0 30.678 13.762 30.678 30.678-.0001 10.249-5.072 19.307-12.82 24.87" fill="#181a1c"/><g fill="#d80000"><circle cx="146.22" cy="232.07" r="24.57"/><circle cx="283.48" cy="232.07" r="24.57"/></g><path d="m273.08 291.77c-17.32 15.78-39.773 24.47-63.22 24.47-26.332 0-50.729-10.612-68.7-29.881-4.384-4.704-11.751-4.96-16.454-.575-4.703 4.384-4.96 11.752-.575 16.454 22.1 23.695 53.34 37.28 85.73 37.28 29.27 0 57.29-10.847 78.905-30.543 4.752-4.33 5.096-11.694.765-16.446-4.329-4.749-11.688-5.097-16.447-.764" fill="#181a1c"/></svg>