<svg xmlns="http://www.w3.org/2000/svg" viewBox="0 0 396.918 396.918" enable-background="new 0 0 396.918 396.918"><path d="m0 22.652v351.61c0 12.51 10.141 22.652 22.652 22.652h351.61c12.51 0 22.652-10.141 22.652-22.652v-351.61c-.0001-12.511-10.142-22.652-22.652-22.652h-351.61c-12.511 0-22.652 10.141-22.652 22.652m180.96 85.57h-62.29c-6.256 0-11.344 5.088-11.344 11.344v59.92h-51.973v-59.92c0-34.912 28.405-63.32 63.32-63.32h62.29l-.0001 51.973m160.6 169.13c0 34.912-28.405 63.32-63.32 63.32h-62.29v-51.973h62.29c6.256 0 11.344-5.088 11.344-11.344v-59.92h51.973v59.92" fill="#ff1a03"/></svg>