<svg xmlns="http://www.w3.org/2000/svg" viewBox="0 0 400.932 400.932" enable-background="new 0 0 400.932 400.932"><path d="m384.76 231.04c-6.361-8.792-9.309-19.53-9.297-30.382.0001-.063.0001-.126.0001-.19 0-96.65-78.35-175-175-175-21.14 0-41.4 3.763-60.16 10.64-10.149 3.72-21.267 4.435-31.672 1.504-9.191-2.589-19.01-3.681-29.18-2.981-42.725 2.94-77.12 37.955-79.33 80.72-1.057 20.414 5.065 39.35 16.05 54.54 6.361 8.792 9.309 19.53 9.296 30.382 0 .063 0 .126 0 .19 0 96.65 78.35 175 175 175 21.14 0 41.4-3.763 60.16-10.64 10.149-3.72 21.267-4.435 31.672-1.504 9.191 2.589 19.01 3.681 29.18 2.981 42.725-2.94 77.12-37.954 79.33-80.72 1.057-20.414-5.065-39.35-16.05-54.54m-177.89-61.946c35.29 8.391 88.61 21.07 88.61 79.81 0 28.934-14.249 51.01-40.12 62.15-18.464 7.952-39.36 9.02-57.37 9.02-55.34 0-90.29-43.03-91.75-44.86-9.06-11.366-7.197-27.928 4.17-36.99 11.364-9.07 27.926-7.196 36.99 4.167.081.097 20.982 24.1 50.587 25.04 35.65 1.131 43.795-9.476 44.848-18.53 1.287-11.06-8.55-19.18-48.15-28.592-33.562-7.982-84.29-20.04-84.29-74.14 0-16.845 6.851-71.807 95.01-71.807 55.668 0 88.53 43.829 89.9 45.695 8.61 11.713 6.096 28.19-5.617 36.798-11.662 8.572-28.03 6.119-36.677-5.452-.62-.797-19.429-21.723-47.605-24.398-21.32-2.025-42.37 5.663-42.37 17.02 0 12.03 6.04 16.08 43.826 25.07" fill="#00aaf2"/></svg>