<svg xmlns="http://www.w3.org/2000/svg" viewBox="0 0 468.339 468.339" enable-background="new 0 0 468.339 468.339"><path d="m233.96 33.724c62.857.021 115.22 52.35 115.29 115.36.018 14.758.473 28.348 1.306 40.867.514 7.724 6.938 13.448 14.305 13.448 1.085 0 2.19-.124 3.3-.384l19.691-4.616c.838-.197 1.679-.291 2.51-.291 5 0 9.606 3.417 10.729 8.478 1.587 7.152-2.42 14.378-9.35 16.808l-29.89 12.07c-7.546 3.046-11.599 11.259-9.474 19.12 23.98 88.65 90.96 79.43 90.96 90.98 0 14.504-50.49 16.552-55.05 21.11s-.198 26.701-10.389 30.987c-1.921.808-4.65 1.089-7.979 1.089-7.676 0-18.532-1.498-29.974-1.498-9.925 0-20.291 1.127-29.404 5.337-24.18 11.168-47.48 32.03-76.38 32.03s-52.2-20.86-76.38-32.03c-9.115-4.211-19.478-5.337-29.404-5.337-11.441 0-22.299 1.498-29.974 1.498-3.327 0-6.06-.282-7.979-1.089-10.191-4.286-5.828-26.425-10.389-30.987s-55.05-6.611-55.05-21.12c0-11.551 66.979-2.331 90.96-90.98 2.125-7.855-1.928-16.07-9.475-19.12l-29.89-12.07c-6.931-2.43-10.938-9.656-9.35-16.808 1.123-5.062 5.728-8.479 10.729-8.478.83 0 1.672.094 2.51.291l19.691 4.616c1.11.26 2.215.384 3.3.384 7.366 0 13.791-5.725 14.305-13.448.833-12.519 1.289-26.11 1.307-40.867.076-63.01 52.02-115.34 114.88-115.36m.008-25h-.009-.009c-18.762.006-37.04 3.776-54.32 11.206-16.589 7.131-31.519 17.299-44.37 30.22-12.839 12.906-22.943 27.889-30.03 44.533-7.37 17.307-11.12 35.599-11.141 54.37-.011 9.215-.202 18.16-.57 26.722l-7.326-1.718c-2.688-.63-5.452-.95-8.213-.951-7.973-.0001-15.838 2.694-22.15 7.588-6.581 5.106-11.196 12.377-12.993 20.474-4.277 19.273 6.365 38.73 24.807 45.572l21.937 8.855c-14.526 44.586-41.31 53.13-59.35 58.885-4.786 1.527-8.92 2.846-12.856 4.799-15.683 7.784-17.376 20.971-17.376 26.28 0 10.167 4.812 19.445 13.551 26.12 4.351 3.326 9.741 6.07 16.477 8.389 9.181 3.161 19.824 5.167 28.474 6.775.418 3.205 1.031 6.648 2.064 10.118 4.289 14.411 13.34 20.864 20.18 23.739 6.488 2.729 13.192 3.044 17.67 3.044 4.38 0 9.01-.343 13.912-.706 5.259-.39 10.697-.792 16.06-.792 8.314 0 14.503.992 18.92 3.03 6.06 2.802 12.497 6.58 19.307 10.579 18.958 11.134 40.445 23.754 67.56 23.754s48.596-12.62 67.55-23.754c6.81-4 13.242-7.777 19.308-10.579 4.417-2.041 10.606-3.03 18.92-3.03 5.365 0 10.803.403 16.06.792 4.902.363 9.532.706 13.912.706 4.478 0 11.181-.315 17.67-3.044 6.838-2.875 15.889-9.328 20.18-23.739 1.033-3.47 1.647-6.913 2.064-10.118 8.65-1.609 19.294-3.614 28.474-6.775 6.737-2.319 12.13-5.063 16.477-8.389 8.738-6.679 13.551-15.957 13.551-26.12 0-5.308-1.693-18.495-17.378-26.28-3.936-1.953-8.07-3.272-12.856-4.799-18.04-5.754-44.822-14.299-59.35-58.885l21.936-8.855c18.442-6.842 29.08-26.3 24.808-45.573-1.797-8.097-6.412-15.368-12.993-20.474-6.308-4.893-14.171-7.588-22.14-7.588-2.761 0-5.525.32-8.215.95l-7.327 1.718c-.368-8.563-.559-17.506-.57-26.722-.023-18.784-3.801-37.09-11.23-54.42-7.131-16.636-17.29-31.615-30.19-44.522-12.903-12.906-27.875-23.06-44.498-30.19-17.315-7.421-35.605-11.187-54.36-11.194z" fill="#050505"/></svg>