<svg xmlns="http://www.w3.org/2000/svg" viewBox="0 0 447.727 447.727" enable-background="new 0 0 447.727 447.727"><defs><linearGradient id="0" gradientUnits="userSpaceOnUse" y1="138.16" x2="0" y2="317.43"><stop stop-color="#de9329"/><stop offset="1" stop-color="#d64c1b"/></linearGradient></defs><g fill="url(#0)"><path d="m447.6 263.73c-1.785-25.984-23.13-46.862-49.14-48.12-9.942-.482-19.306 1.84-27.373 6.24-1.075-51.745-43.33-93.37-95.33-93.37-13.755 0-26.82 2.923-38.627 8.168-2.541 1.129-4.16 3.673-4.16 6.454v169.07c0 3.906 3.167 7.07 7.07 7.07h155.84c29.846-.0001 53.802-25.22 51.722-55.51"/><path d="m219.18 139.43c-3.933 0-7.12 3.188-7.12 7.12v165.39c0 3.933 3.188 7.12 7.12 7.12 3.932 0 7.121-3.188 7.121-7.12v-165.39c0-3.932-3.189-7.12-7.121-7.12"/><path d="m195.62 157.02c-3.933 0-7.12 3.188-7.12 7.12v147.8c0 3.933 3.188 7.12 7.12 7.12s7.12-3.188 7.12-7.12v-147.8c0-3.932-3.188-7.12-7.12-7.12"/><path d="m172.06 165.03c-3.933 0-7.12 3.188-7.12 7.12v139.78c0 3.933 3.188 7.12 7.12 7.12 3.933 0 7.12-3.188 7.12-7.12v-139.78c.0001-3.933-3.187-7.12-7.12-7.12"/><path d="m148.5 154.35c-3.933 0-7.12 3.188-7.12 7.12v150.47c0 3.933 3.188 7.12 7.12 7.12s7.12-3.188 7.12-7.12v-150.47c0-3.932-3.188-7.12-7.12-7.12"/><path d="m124.93 161.47c-3.933 0-7.12 3.188-7.12 7.12v143.35c0 3.933 3.188 7.12 7.12 7.12s7.12-3.188 7.12-7.12v-143.35c0-3.932-3.187-7.12-7.12-7.12"/><path d="m101.37 175.72c-3.933 0-7.12 3.188-7.12 7.12v129.1c0 3.933 3.188 7.12 7.12 7.12s7.12-3.188 7.12-7.12v-129.1c.0001-3.933-3.187-7.12-7.12-7.12"/><path d="m77.81 203.32c-3.933 0-7.12 3.188-7.12 7.12v101.5c0 3.933 3.188 7.12 7.12 7.12 3.933 0 7.12-3.188 7.12-7.12v-101.5c0-3.932-3.188-7.12-7.12-7.12"/><path d="m54.24 214.9c-3.933 0-7.12 3.188-7.12 7.12v89.92c0 3.933 3.188 7.12 7.12 7.12s7.12-3.188 7.12-7.12v-89.92c0-3.932-3.187-7.12-7.12-7.12"/><path d="m30.683 217.55c-3.933 0-7.12 3.188-7.12 7.12v84.61c0 3.933 3.188 7.12 7.12 7.12s7.12-3.188 7.12-7.12v-84.61c0-3.932-3.188-7.12-7.12-7.12"/><path d="m7.12 236.14c-3.933 0-7.12 3.188-7.12 7.12v48.756c0 3.933 3.188 7.12 7.12 7.12s7.12-3.188 7.12-7.12v-48.756c0-3.933-3.187-7.12-7.12-7.12"/></g></svg>