<svg xmlns="http://www.w3.org/2000/svg" viewBox="0 0 427.652 427.652" enable-background="new 0 0 427.652 427.652"><path d="m213.83 0c-118.09 0-213.83 95.73-213.83 213.83s95.73 213.83 213.83 213.83 213.83-95.73 213.83-213.83-95.73-213.83-213.83-213.83m93.06 310.32c-2.719 4.652-7.612 7.246-12.638 7.247-2.506 0-5.04-.645-7.364-2-38.425-22.456-82.81-26.06-113.3-25.14-33.763 1.027-58.52 7.692-58.769 7.76-7.783 2.126-15.826-2.454-17.961-10.236-2.134-7.781 2.43-15.819 10.209-17.962 1.116-.307 27.76-7.544 64.811-8.766 21.824-.72 42.834.801 62.44 4.52 24.83 4.71 47.48 12.978 67.32 24.574 6.973 4.074 9.321 13.03 5.247 20m27.18-56.46c-3.22 5.511-9.02 8.583-14.97 8.584-2.968 0-5.975-.763-8.723-2.369-45.514-26.6-98.1-30.873-134.2-29.776-39.994 1.217-69.32 9.112-69.61 9.192-9.217 2.515-18.746-2.906-21.275-12.12-2.528-9.218 2.879-18.738 12.09-21.277 1.322-.364 32.882-8.937 76.77-10.384 25.853-.852 50.739.949 73.96 5.354 29.412 5.58 56.24 15.373 79.74 29.11 8.26 4.826 11.04 15.434 6.215 23.692m16.711-51.33c-3.641 0-7.329-.936-10.7-2.906-108.21-63.24-248.57-25.643-249.98-25.25-11.313 3.117-23.01-3.527-26.12-14.839-3.117-11.312 3.527-23.01 14.839-26.12 1.621-.447 40.33-10.962 94.17-12.737 31.713-1.044 62.24 1.164 90.72 6.567 36.08 6.844 68.987 18.856 97.81 35.704 10.13 5.92 13.543 18.931 7.623 29.06-3.95 6.76-11.06 10.529-18.362 10.529" fill="#00d95f"/></svg>