<svg xmlns="http://www.w3.org/2000/svg" viewBox="0 0 404 404" enable-background="new 0 0 404 404"><path d="m354.75 0h-305.5c-27.2 0-49.25 22.05-49.25 49.25v305.5c0 27.2 22.05 49.25 49.25 49.25h305.5c27.2 0 49.25-22.05 49.25-49.25v-305.5c0-27.2-22.05-49.25-49.25-49.25m-179.01 314.89c0 12.633-10.241 22.873-22.873 22.873h-77.47c-12.633 0-22.873-10.241-22.873-22.873v-236.06c0-12.633 10.241-22.873 22.873-22.873h77.47c12.633 0 22.873 10.241 22.873 22.873v236.06m175.74-101.55c0 12.633-10.241 22.873-22.873 22.873h-77.47c-12.633 0-22.873-10.241-22.873-22.873v-134.51c0-12.633 10.241-22.873 22.873-22.873h77.47c12.633 0 22.873 10.241 22.873 22.873v134.51" fill="#518fe1"/></svg>