<svg xmlns="http://www.w3.org/2000/svg" viewBox="0 0 434.016 434.016" enable-background="new 0 0 434.016 434.016"><path d="m416.05 52.27c-10.508-11.324-25.72-17.356-45.21-17.928-55.02-1.774-93.93 27.496-115.65 86.986-1.14 3.124-.444 6.588 1.814 9.04 2.247 2.439 5.622 3.409 8.812 2.534 6.246-1.718 12.44-2.588 18.412-2.588 8.02 0 18.689 1.474 24 8.497 4.077 5.39 4.632 13.472 1.649 24.02-2.518 8.899-15.476 32.721-31.515 57.929-19.539 30.712-30.333 44.48-33.445 44.48-10.31 0-47.565-165.19-48.589-168.82-10.686-37.86-16.05-56.864-50.798-56.864-26.483 0-85.55 48.36-134.05 90.5-2.983 2.591-5.495 4.774-7.44 6.436-4.688 4.01-5.395 10.97-1.607 15.849l9.04 11.644c3.807 4.906 10.751 5.93 15.812 2.331l.497-.354c15.691-11.163 30.514-21.706 41.704-22.284 12.16-.597 22.711 18.4 35.29 63.6 23.957 87.8 60.35 192.47 97.71 192.47 39.04 0 85.61-33.09 145.8-111.43 54.48-70.902 83.65-127.13 85.53-168.05 1.407-30.901-4.57-53.78-17.766-68" fill="#69b4e5"/></svg>