<svg xmlns="http://www.w3.org/2000/svg" viewBox="0 0 418.135 418.135" enable-background="new 0 0 418.135 418.135"><g fill="#7ad06d"><path d="m198.93.242c-110.43 5.258-197.57 97.22-197.24 207.78.102 33.672 8.231 65.45 22.571 93.54l-22.02 106.87c-1.191 5.781 4.02 10.843 9.766 9.483l104.72-24.811c26.905 13.402 57.12 21.14 89.11 21.631 112.87 1.724 206.98-87.9 210.5-200.72 3.771-120.94-96.05-219.55-217.41-213.77m124.96 321.95c-30.669 30.669-71.45 47.559-114.82 47.559-25.396 0-49.71-5.698-72.27-16.935l-14.584-7.265-64.21 15.212 13.515-65.61-7.185-14.07c-11.711-22.935-17.649-47.736-17.649-73.71 0-43.37 16.89-84.15 47.559-114.82 30.395-30.395 71.837-47.56 114.82-47.56 43.37.0001 84.15 16.891 114.82 47.559 30.669 30.669 47.559 71.44 47.56 114.82-.0001 42.986-17.17 84.43-47.561 114.82"/><path d="m309.71 252.35l-40.17-11.534c-5.281-1.516-10.968-.018-14.816 3.903l-9.823 10.01c-4.142 4.22-10.427 5.576-15.909 3.358-19-7.69-58.974-43.23-69.18-61.01-2.945-5.128-2.458-11.539 1.158-16.218l8.576-11.09c3.36-4.347 4.069-10.185 1.847-15.21l-16.9-38.22c-4.048-9.155-15.747-11.82-23.39-5.356-11.211 9.482-24.513 23.891-26.13 39.854-2.851 28.14 9.219 63.62 54.862 106.22 52.73 49.22 94.96 55.717 122.45 49.06 15.594-3.777 28.06-18.919 35.921-31.32 5.362-8.453 1.128-19.679-8.494-22.442"/></g></svg>