<svg xmlns="http://www.w3.org/2000/svg" viewBox="0 0 458.723 458.723" enable-background="new 0 0 458.723 458.723"><path d="m455.72 93.49h-88.4-3v3 9.613 3h3 6.143c7.145 0 13.588 3.667 17.237 9.81 3.648 6.143 3.786 13.555.368 19.829l-98.3 180.43-44.769-106.73 42.17-77.38c8.727-16.01 25.477-25.962 43.714-25.962h1.992 3v-3-9.613-3h-3-88.4-3v3 9.613 3h3 6.143c7.145 0 13.588 3.667 17.237 9.81 3.648 6.143 3.786 13.555.368 19.829l-30.587 56.14-27.26-64.984c-1.976-4.71-1.487-9.852 1.341-14.11s7.38-6.693 12.488-6.693h6.988 3v-3-9.613-3h-3-105.73-3v3 9.613 3h3 1.454c20.857 0 39.546 12.428 47.615 31.661l40.28 96.02-44.887 82.39-79.4-189.27c-1.976-4.71-1.487-9.852 1.341-14.11s7.38-6.693 12.488-6.693h10.737 3v-3-9.613-3h-3-115.09-3v3 9.613 3h3 7.06c20.857 0 39.547 12.428 47.615 31.661l91.53 218.19c1.601 3.816 5.313 6.282 9.458 6.282 3.804 0 7.163-1.998 8.986-5.344l11.939-21.91 45.582-83.65 43.884 104.62c1.601 3.816 5.313 6.282 9.458 6.282 3.804 0 7.163-1.998 8.986-5.344l11.939-21.91 110.58-202.92c8.727-16.01 25.477-25.962 43.714-25.962h1.992 3v-3-9.613-3h-2.999v.002" fill="#222a30"/></svg>