<svg xmlns="http://www.w3.org/2000/svg" viewBox="0 0 447.674 447.674" enable-background="new 0 0 447.674 447.674"><g fill="#00769d"><path d="m134.29 138.16h-24.722l67.4 190.52 37.732-107.82-29.25-82.7h-26.08v-18.15h115.51v18.15h-27.05l67.4 190.52 24.23-69.23c31.781-88.7-26.05-116.33-26.05-136.13s16.05-35.843 35.843-35.843c1.071 0 2.111.058 3.13.153-33.541-31.663-78.77-51.08-128.53-51.08-65.03 0-122.31 33.15-155.88 83.46h66.34v18.15h.002"/><path d="m36.548 223.84c0 71.7 40.3 133.99 99.48 165.46l-84.52-238.92c-9.628 22.556-14.963 47.39-14.963 73.46"/><path d="m386.83 131.55c2.679 15.774 1.868 33.503-2.243 51.3h.745l-2.832 8.092c-1.678 5.843-3.791 11.82-6.191 17.693l-64.44 180.54c59.06-31.51 99.26-93.72 99.26-165.34 0-33.557-8.834-65.05-24.291-92.29"/><path d="m166.07 402.03c18.19 5.894 37.603 9.09 57.762 9.09 19.228 0 37.777-2.902 55.24-8.285l-54.784-154.86-58.22 154.06"/><path d="m382.11 65.56c-42.28-42.28-98.49-65.56-158.28-65.56s-116 23.283-158.28 65.56-65.56 98.49-65.56 158.28c0 59.789 23.283 116 65.56 158.28s98.49 65.56 158.28 65.56 116-23.283 158.28-65.56c42.28-42.28 65.56-98.49 65.56-158.28-.0001-59.79-23.284-116-65.56-158.28m-158.28 366.32c-114.72 0-208.05-93.33-208.05-208.05s93.33-208.05 208.05-208.05 208.05 93.33 208.05 208.05-93.33 208.05-208.05 208.05"/></g></svg>