<svg version="1.1" xmlns="http://www.w3.org/2000/svg" xmlns:xlink="http://www.w3.org/1999/xlink" x="0px" y="0px"
	 viewBox="0 0 294.843 294.843" style="enable-background:new 0 0 294.843 294.843;" xml:space="preserve">
<g>

	<path d="M205.213,71.476c-16.726-12.747-36.71-19.484-57.792-19.484c-52.62,0-95.43,42.81-95.43,95.43s42.81,95.43,95.43,95.43
		c25.49,0,49.455-9.926,67.479-27.951c2.343-2.343,2.343-6.142,0-8.485c-2.343-2.343-6.143-2.343-8.485,0
		c-15.758,15.758-36.709,24.436-58.994,24.436c-46.003,0-83.43-37.426-83.43-83.43s37.426-83.43,83.43-83.43
		c36.894,0,69.843,24.715,80.126,60.104c0.924,3.182,4.253,5.011,7.436,4.087c3.182-0.925,5.012-4.254,4.087-7.436
		C233.422,101.308,221.398,83.809,205.213,71.476z"/>
	<path d="M217.773,129.262c-2.344-2.343-6.143-2.343-8.485,0c-2.343,2.343-2.343,6.142,0,8.485l22.57,22.571
		c1.125,1.125,2.651,1.757,4.243,1.757s3.118-0.632,4.243-1.757l22.57-22.571c2.343-2.343,2.343-6.142,0-8.485
		c-2.344-2.343-6.143-2.343-8.485,0l-18.328,18.328L217.773,129.262z"/>
</g>
</svg>